/* XPM */
static char *_544169e22664b04e6d9437953987e85yt7s2tI0yiciXRpr[] = {
/* columns rows colors chars-per-pixel */
"64 64 174 2 ",
"   c None",
".  c #030001",
"X  c #0C0102",
"o  c #0C0A0B",
"O  c #140004",
"+  c #1B0005",
"@  c #1D0109",
"#  c #160B0C",
"$  c #1F0A0D",
"%  c #160F10",
"&  c #161314",
"*  c #1F1A1C",
"=  c #230004",
"-  c #2C0005",
";  c #230109",
":  c #2B010A",
">  c #220B0D",
",  c #2C090D",
"<  c #330004",
"1  c #3A0006",
"2  c #33000C",
"3  c #3B010E",
"4  c #39080F",
"5  c #2C0E11",
"6  c #3D0110",
"7  c #350910",
"8  c #3C0A12",
"9  c #261315",
"0  c #2E171A",
"q  c #2C1C1E",
"w  c #231C1D",
"e  c #311719",
"r  c #3D141A",
"t  c #331C1E",
"y  c #331F22",
"u  c #252524",
"i  c #2B2223",
"p  c #2A292A",
"a  c #392327",
"s  c #3D262A",
"d  c #32292A",
"f  c #3C2F31",
"g  c #393234",
"h  c #3C3B3C",
"j  c #43010B",
"k  c #4C000C",
"l  c #54000E",
"z  c #5A000E",
"x  c #440011",
"c  c #4C0014",
"v  c #400810",
"b  c #4D0A15",
"n  c #540114",
"m  c #5B0015",
"M  c #5F0118",
"N  c #530F1D",
"B  c #5D0C1B",
"V  c #43131C",
"C  c #4D121D",
"Z  c #42191E",
"A  c #5F121F",
"S  c #640014",
"D  c #6B0014",
"F  c #640019",
"G  c #6C011A",
"H  c #640D1D",
"J  c #6D091D",
"K  c #740015",
"L  c #74001C",
"P  c #79001E",
"I  c #730B1F",
"U  c #60101E",
"Y  c #401E23",
"T  c #491B22",
"R  c #571721",
"E  c #5E1521",
"W  c #551B25",
"Q  c #5C1A25",
"!  c #650F20",
"~  c #6A0F21",
"^  c #740E22",
"/  c #7F0B22",
"(  c #6D1224",
")  c #6D1528",
"_  c #641C2A",
"`  c #6B1D2C",
"'  c #751126",
"]  c #731C2C",
"[  c #7A1C2D",
"{  c #7B1F30",
"}  c #442227",
"|  c #43262A",
" . c #4C222A",
".. c #4C282D",
"X. c #56262D",
"o. c #51222B",
"O. c #5E212A",
"+. c #472E32",
"@. c #5F2732",
"#. c #5B2932",
"$. c #443134",
"%. c #4B3236",
"&. c #463639",
"*. c #453A3B",
"=. c #523237",
"-. c #533539",
";. c #5A353B",
":. c #66202F",
">. c #622731",
",. c #682731",
"<. c #632C36",
"1. c #762232",
"2. c #702839",
"3. c #7B2C3C",
"4. c #65343D",
"5. c #6E323E",
"6. c #5C3D42",
"7. c #613840",
"8. c #6F3A44",
"9. c #6C3E48",
"0. c #703641",
"q. c #7C3242",
"w. c #7D3A47",
"e. c #7B3E48",
"r. c #434343",
"t. c #4B4042",
"y. c #4D4B4B",
"u. c #554446",
"i. c #554E4F",
"p. c #5A484B",
"a. c #545455",
"s. c #5A5557",
"d. c #575758",
"f. c #62454B",
"g. c #6C444A",
"h. c #7C4651",
"j. c #734C53",
"k. c #7F4F57",
"l. c #7D4F58",
"z. c #665659",
"x. c #6C5558",
"c. c #7F575F",
"v. c #666363",
"b. c #6A6667",
"n. c #796468",
"m. c #7C6F70",
"M. c #800622",
"N. c #81152A",
"B. c #871A30",
"V. c #892236",
"C. c #83283B",
"Z. c #892F42",
"A. c #833646",
"S. c #8C3244",
"D. c #913549",
"F. c #913C4D",
"G. c #9B3C51",
"H. c #83414F",
"J. c #844351",
"K. c #8D4150",
"L. c #854955",
"P. c #804F5A",
"I. c #944354",
"U. c #9D4356",
"Y. c #9D4758",
"T. c #9C4B5D",
"R. c #8C535E",
"E. c #A34C5D",
"W. c #865963",
"Q. c #8C5C66",
"!. c #945664",
"~. c #9B5262",
"^. c #945865",
"/. c #9B5E6B",
/* pixels */
"                                                                                                                                ",
"                                                                                                                                ",
"                                                                                                                                ",
"                                                                                                                                ",
"                                                                                                                                ",
"                                                                                                                                ",
"                                                                                                                                ",
"                                                          G.M.    M.U.                                                          ",
"                                                      U.M.K P     P K M.U.                                                      ",
"                                                    N.K P P P     P P P K [                                                     ",
"                                                V.L L P P P L     / P P / L K                                                   ",
"                                            Z.L K L P L L L L     L L L L L L     I.                                            ",
"                                        F.I G L L L L G G D [     L L L G L L     K ^ ~.                                        ",
"                                    ~.' D G G G G G G D ' I.      G G G G G G     G G S {                                       ",
"                                  { S D D G G G G S J S.          G G G G G G     G G G D J                                     ",
"                              3.S S G F G F F S S 3.              F F G F G F     F F G G F                                     ",
"                          A.H z F F F F F S m )           ] m     M ! M F ! F     F F F F F       3.                            ",
"                      !.! z M M M M M M l H /.        q.z m F     M M M M M M     M M M M M       m M q.                        ",
"                    ` l n M m M m m l B w.        L.M n m B m     M M m m m M     M M m m M       M m l A J.                    ",
"                  k n m m n m n l n 2.          U k n n n m m     n m m n n m     n n m n n       m n n n l n                   ",
"                  n n n n n n k ,.          :.l n n n n n n k     n n n n n n     n n n n n       n n n n n n                   ",
"                  n c c c k N           5.b k c c n c c j c 5.    c c c c c c     c n c c n       c c n c c c                   ",
"                  c c j b l.        Q.N j c c x c c j j :.        c c c c c c     c c c c x       c c c c c c                   ",
"                  1 j <.          W 1 j x c x x j 1 C c.          x x c x c x     c x x c x       x x x x x x                   ",
"                              #.8 1 x x x 6 x 1 v 4.              x x x x 6 x     x 6 x x x       6 x x 6 x x                   ",
"                          j.v 1 3 6 6 6 6 1 2 X.          X.3     6 6 6 6 6 6     6 6 6 3 3       6 6 6 6 6 6                   ",
"                        V - 3 4 2 6 6 2 < T           g.4 < 2     6 6 2 2 6 6     6 6 6 6 6       6 6 6 6 2 6                   ",
"                     .- 2 2 2 2 2 2 - 8 ;.          r - 2 3 2     2 2 2 2 2 2     2 2 2 2 2       2 2 2 2 2 2                   ",
"                  - - 2 2 2 2 : - : ..          } - - 2 2 2 2     2 2 2 2 2 2     2 2 : : 2       2 : 2 2 2 2                   ",
"                  : : : : : - = }           =., - : : : : : ;     : - : : : :     : : : : :       : : : : : :                   ",
"                  : ; - ; = , n.        x., + - ; - ; ; = = |     , = ; : : ;     ; : ; : :       : : ; ; ; :                   ",
"                  ; ; + > %.          t + = ; ; ; ; = + e           +.> + ; ;     ; ; ; ; ;       ; ; ; ; ; ;                   ",
"                  O + a           s @ + ; @ ; = @ O > u.                $.> +     ; @ @ ; @       ; @ ; @ @ @                   ",
"                    m.        &.> O + @ @ @ + O O +.          E.E.          $.    + + @ + @       @ + @ @ @ @                   ",
"                            9 O O + + O O O X q             B.K K V.              O O + + O       + O + o @ @                   ",
"                        i X X O O O O O X # i.          S.P L P P L P D.          d O X O O       O + O @ O O                   ",
"                    g O X O O O O X X X f           F.K K L L ^ L L K D T.            d X X       O O O O X O                   ",
"                  . X X X X X X X . w           I.' D G G L L G G D C.                    i       X X X O X o                   ",
"                  X X X X X . . & b.          [ S D G G G G D D [           K.J J ~.              X X X X X .                   ",
"                  X X . . . o y.          3.S S F F G F S m ( A.        /.' z F S m 1.            . . X X X .                   ",
"                  . . . . p           3.B m M M M M M m m 3.          ] m M M M M M l l ^.        r.o . . . .                   ",
"                  . . &           R.A l m m m m m m l `           e.l n m m m m m l B H.              h o . .                   ",
"                  u a.          _ k n n n n n n k E L.        h.N k n n n n n n c e.          Q.          h u                   ",
"                            >.c k c c c c c j b 0.          R j k c c c c k j Q             :.j c 8.                            ",
"                        h.b j x x c x c j j @.          @.j j x c x x x j C P.          8.j j x x 1 b W.                        ",
"                      #.- 1 j 8 x x 3 < T           4.3 1 x x 6 x x 1 v g.          g.v 1 x x x x x 1 < c.                      ",
"                        j.V < 3 2 < 8 j.        7.8 < 6 6 2 3 3 2 2 o.            T < 2 6 6 6 3 1 - o.                          ",
"                            ;.7 2 -.          Z - 2 2 2 2 2 2 - r              .- < 2 2 2 2 : - r                               ",
"                                          } = - : : : : : = , f.          =.- ; : : : : : - , u.                                ",
"                                      +.+ = - ; ; : : ; = 6.          -., = ; ; : ; - = = |                                     ",
"                                        s + + = = @ O t             0 + @ @ @ = ; @ O e                                         ",
"                                          p.9 O O > z.          i O O @ + @ + + O $ z.                                          ",
"                                              t.*.          f # O O O O + O X # f                                               ",
"                                                        s.# X X O O O O X . q                                                   ",
"                                                      * . X X X X X . . % v.                                                    ",
"                                                        r.. . . . . o h                                                         ",
"                                                            u . . p                                                             ",
"                                                              a.d.                                                              ",
"                                                                                                                                ",
"                                                                                                                                ",
"                                                                                                                                ",
"                                                                                                                                ",
"                                                                                                                                ",
"                                                                                                                                "
};
