/* XPM */
static char *fe1faf8286f34220c3367b4dab44f21dtNhg3uzC9WTQXvW4[] = {
/* columns rows colors chars-per-pixel */
"32 32 248 2 ",
"   c None",
".  c black",
"X  c #010100",
"o  c #010101",
"O  c #030000",
"+  c #060000",
"@  c #080000",
"#  c #080001",
"$  c #080101",
"%  c #0A0003",
"&  c #0C0000",
"*  c #0C0001",
"=  c #0F0000",
"-  c #0D0102",
";  c #0F0005",
":  c #090B0B",
">  c #100003",
",  c #100203",
"<  c #140000",
"1  c #160000",
"2  c #170001",
"3  c #100004",
"4  c #100304",
"5  c #160005",
"6  c #160006",
"7  c #170007",
"8  c #1D0000",
"9  c #1E0000",
"0  c #1F0000",
"q  c #1F0002",
"w  c #1F0003",
"e  c #1A0204",
"r  c #1D0007",
"t  c #1C0307",
"y  c #1C0407",
"u  c #1C0507",
"i  c #1D0108",
"p  c #1E0008",
"a  c #1E0108",
"s  c #1A090B",
"d  c #151212",
"f  c #151615",
"g  c #1F1214",
"h  c #191516",
"j  c #1D1515",
"k  c #210001",
"l  c #230001",
"z  c #230002",
"x  c #250003",
"c  c #270407",
"v  c #280003",
"b  c #280004",
"n  c #290005",
"m  c #290006",
"M  c #290106",
"N  c #2A0007",
"B  c #2E0005",
"V  c #2F0005",
"C  c #250109",
"Z  c #260008",
"A  c #260109",
"S  c #26000A",
"D  c #2D000B",
"F  c #2E000B",
"G  c #2D050A",
"H  c #2E000C",
"J  c #220A0D",
"K  c #370002",
"L  c #300006",
"P  c #310006",
"I  c #300007",
"U  c #310007",
"Y  c #3A0006",
"T  c #33020A",
"R  c #34030A",
"E  c #36000E",
"W  c #37000E",
"Q  c #36010E",
"!  c #36010F",
"~  c #390008",
"^  c #3A0009",
"/  c #3C0008",
"(  c #3D0008",
")  c #3E0009",
"_  c #3D000A",
"`  c #3E000B",
"'  c #3C030C",
"]  c #3E000F",
"[  c #3F0010",
"{  c #3F0110",
"}  c #340D12",
"|  c #3A0B12",
" . c #261215",
".. c #2F1013",
"X. c #2E1417",
"o. c #341216",
"O. c #3F1018",
"+. c #361C1F",
"@. c #3A181D",
"#. c #381C1F",
"$. c #291F20",
"%. c #2B2324",
"&. c #2C2828",
"*. c #2E2D2E",
"=. c #312728",
"-. c #3D292C",
";. c #3C3233",
":. c #393A3A",
">. c #420009",
",. c #43000C",
"<. c #43000D",
"1. c #40030E",
"2. c #4B000B",
"3. c #4B000C",
"4. c #4B000D",
"5. c #4A000E",
"6. c #4C000E",
"7. c #4D000E",
"8. c #4D000F",
"9. c #53000B",
"0. c #54000F",
"q. c #55000F",
"w. c #400111",
"e. c #470311",
"r. c #470012",
"t. c #490012",
"y. c #480013",
"u. c #490013",
"i. c #4E0010",
"p. c #4D0210",
"a. c #4F0311",
"s. c #460E18",
"d. c #490C18",
"f. c #550010",
"g. c #550111",
"h. c #570010",
"j. c #570011",
"k. c #560212",
"l. c #500513",
"z. c #500114",
"x. c #510114",
"c. c #510015",
"v. c #500115",
"b. c #520716",
"n. c #580011",
"m. c #5B0011",
"M. c #5A0113",
"N. c #5B0113",
"B. c #5C0011",
"V. c #590116",
"C. c #590017",
"Z. c #5A0116",
"A. c #560B19",
"S. c #550C1B",
"D. c #5E0D1D",
"F. c #40121A",
"G. c #42151D",
"H. c #4A1018",
"J. c #52131F",
"K. c #620011",
"L. c #630012",
"P. c #640013",
"I. c #600017",
"U. c #650014",
"Y. c #650015",
"T. c #660215",
"R. c #670217",
"E. c #600517",
"W. c #6A0013",
"Q. c #6D0013",
"!. c #6B0014",
"~. c #6C0014",
"^. c #6E0015",
"/. c #6C0016",
"(. c #6F0016",
"). c #610019",
"_. c #610618",
"`. c #680019",
"'. c #68001A",
"]. c #69011A",
"[. c #600B1D",
"{. c #710015",
"}. c #720017",
"|. c #70001B",
" X c #70011C",
".X c #76001D",
"XX c #7A041C",
"oX c #491E25",
"OX c #501621",
"+X c #581A26",
"@X c #581C27",
"#X c #7E0721",
"$X c #7F0A22",
"%X c #7B0C24",
"&X c #6A1326",
"*X c #691826",
"=X c #611B29",
"-X c #661928",
";X c #701124",
":X c #711226",
">X c #721427",
",X c #77172B",
"<X c #781328",
"1X c #7E182D",
"2X c #7C1C2F",
"3X c #791F32",
"4X c #402426",
"5X c #4C2028",
"6X c #4C2228",
"7X c #4B282D",
"8X c #5B252B",
"9X c #5A232E",
"0X c #582730",
"qX c #552E34",
"wX c #483336",
"eX c #4C3134",
"rX c #48373A",
"tX c #4B393A",
"yX c #5D343B",
"uX c #602B35",
"iX c #712736",
"pX c #742636",
"aX c #7F2033",
"sX c #782B3A",
"dX c #6F353F",
"fX c #70323D",
"gX c #76303F",
"hX c #7C303F",
"jX c #723440",
"kX c #793945",
"lX c #7C3D4A",
"zX c gray25",
"xX c #464647",
"cX c #514446",
"vX c #574448",
"bX c #5C4A4C",
"nX c #654148",
"mX c #832336",
"MX c #81293A",
"NX c #902F43",
"BX c #853E4D",
"VX c #933649",
"CX c #9D3E53",
"ZX c #834652",
"AX c #824A55",
"SX c #8B4856",
"DX c #9C4D5E",
"FX c #A4495D",
/* pixels */
"                                                                ",
"                                                                ",
"                                                                ",
"                                                                ",
"                          NXXX    XXVX                          ",
"                      DX%X}.}.    .X}.                          ",
"                    <X!./.W.aX    |. X  /.2X                    ",
"                aXT.T.K.;X        `.`.  `.T.T.                  ",
"            hXE.B.m._.BX    pX    ).).  ).).I.  &XSX            ",
"          D.q.f.f.gX    kXf.q.    Z.Z.  Z.Z.Z.  f.q.-X          ",
"        8.8.8.=X      S.3.8.l.    v.v.  v.v.v.  v.v.i.2.        ",
"        e.J.      @X>.<.<.+X      y.y.  y.y.y.  u.u.u.y.        ",
"              0X' ^ ^ s.          ] {   { { w.  { { { {         ",
"          nX| P B T yX    qXR     W W   W R W   W W W W         ",
"        G b x b 7X      } v b     b D   D D D   D D D D         ",
"        q q o.      #.q q q +.    X.q   S S S   S S S S         ",
"          bX    -.e 1 1  .          vX  , w p   p p p p         ",
"            cXs = , 3 ;.    CX$X$XFX    %., =   5 5 5 7         ",
"          j + + # &.      1X/.}./.mX        %.  = , 3 3         ",
"        + o o f       MXP.P.K.>X      >X,X      o o # #         ",
"        o : xX    sXB.q.f.[.      iXZ.m.9.*X      *.o o         ",
"              lXS.8.3.i.fX    fXa.8.3.b.AX    jXZX              ",
"            H.Y ] / 8X      d./ / 1.uX      OX/ K 8X            ",
"              F.O.      G.P B T 6X      5XB B P 6X              ",
"                    4Xx x k @.      eXc k k o.                  ",
"                    rXw u wX    tXJ 1 1 u tX                    ",
"                              g # = ; =.                        ",
"                            d o o h                             ",
"                              :.:.                              ",
"                                                                ",
"                                                                ",
"                                                                "
};
